{"title":"Halo 4 - Avanzar Hasta EL Amanecer (Español) (pelicula co","uid":8551865,"size":735119360,"categoryP":"video","categoryS":"movies","magnet":"?xt=urn:btih:db49eb5b58a8ff2366b0db5a7d5fda19f0071ef9&amp;dn=Halo+4+-+Avanzar+Hasta+EL+Amanecer+%28Espa%26ntilde%3Bol%29+%28pelicula+co&amp;tr=udp%3A%2F%2Ftracker.openbittorrent.com%3A80&amp;tr=udp%3A%2F%2Fopen.demonii.com%3A1337&amp;tr=udp%3A%2F%2Ftracker.coppersurfer.tk%3A6969&amp;tr=udp%3A%2F%2Fexodus.desync.com%3A6969","seeders":1,"leechers":0,"uploader":"hacker1260","files":1,"time":1370659987,"description":"Format                                   : AVI\nFormat/Info                              : Audio Video Interleave\nFile size                                : 701 MiB\nDuration                                 : 1h 31mn\nOverall bit rate                         : 1 072 Kbps\nDirector                                 : YamjaV\nWriting application                      : VirtualDubMod 1.5.10.2 (build 2540/release)\nWriting library                          : VirtualDubMod build 2540/release\nCopyright                                : WwW.LaZonaPremium.OrG\n\nVideo\nID                                       : 0\nFormat                                   : MPEG-4 Visual\nFormat profile                           : Advanced Simple@L5\nFormat settings, BVOP                    : 2\nFormat settings, QPel                    : No\nFormat settings, GMC                     : No warppoints\nFormat settings, Matrix                  : Default (H.263)\nMuxing mode                              : Packed bitstream\nCodec ID                                 : XVID\nCodec ID/Hint                            : XviD\nDuration                                 : 1h 31mn\nBit rate                                 : 935 Kbps\nWidth                                    : 720 pixels\nHeight                                   : 304 pixels\nDisplay aspect ratio                     : 2.35:1\nFrame rate                               : 23.976 fps\nColor space                              : YUV\nChroma subsampling                       : 4:2:0\nBit depth                                : 8 bits\nScan type                                : Progressive\nCompression mode                         : Lossy\nBits/(Pixel*Frame)                       : 0.178\nStream size                              : 611 MiB (87%)\nWriting library                          : XviD 64\n\nAudio\nID                                       : 1\nFormat                                   : MPEG Audio\nFormat version                           : Version 1\nFormat profile                           : Layer 3\nMode                                     : Joint stereo\nMode extension                           : MS Stereo\nCodec ID                                 : 55\nCodec ID/Hint                            : MP3\nDuration                                 : 1h 31mn\nBit rate mode                            : Constant\nBit rate                                 : 128 Kbps\nChannel(s)                               : 2 channels\nSampling rate                            : 48.0 KHz\nCompression mode                         : Lossy\nStream size                              : 83.7 MiB (12%)\nAlignment                                : Aligned on interleaves\nInterleave, duration                     : 42 ms (1.00 video frame)\nInterleave, preload duration             : 504 ms\n\n","torrent":{"xt":"urn:btih:db49eb5b58a8ff2366b0db5a7d5fda19f0071ef9","amp;dn":"Halo+4+-+Avanzar+Hasta+EL+Amanecer+%28Espa%26ntilde%3Bol%29+%28pelicula+co","amp;tr":["udp%3A%2F%2Ftracker.openbittorrent.com%3A80","udp%3A%2F%2Fopen.demonii.com%3A1337","udp%3A%2F%2Ftracker.coppersurfer.tk%3A6969","udp%3A%2F%2Fexodus.desync.com%3A6969"],"infoHash":"db49eb5b58a8ff2366b0db5a7d5fda19f0071ef9","infoHashBuffer":{"type":"Buffer","data":[219,73,235,91,88,168,255,35,102,176,219,90,125,95,218,25,240,7,30,249]},"announce":[],"urlList":[]}}